<svg width="111" height="131" viewBox="0 0 111 131" fill="none" xmlns="http://www.w3.org/2000/svg">
<g filter="url(#filter0_d_1_3796)">
<path d="M32.1466 51.0517C33.1391 45.4915 37.4915 41.1391 43.0517 40.1466C51.6162 38.6178 60.3838 38.6178 68.9483 40.1466C74.5085 41.1391 78.8609 45.4915 79.8534 51.0517C81.3822 59.6162 81.3822 68.3838 79.8534 76.9483C78.8609 82.5085 74.5085 86.8609 68.9483 87.8534C60.3838 89.3822 51.6162 89.3822 43.0517 87.8534C37.4915 86.8609 33.1391 82.5085 32.1466 76.9483C30.6178 68.3838 30.6178 59.6162 32.1466 51.0517Z" fill="white"/>
</g>
<path fill-rule="evenodd" clip-rule="evenodd" d="M49.1245 46.9092C49.2279 46.8024 49.4088 46.8757 49.4088 47.0243V53.8367H49.4089V68.4878C49.4089 71.2898 51.6803 73.5612 54.4823 73.5612H57.6893C60.4913 73.5612 62.7627 71.2898 62.7627 68.4878V60.2486C62.7627 59.3121 62.0035 58.5528 61.067 58.5528H59.2709V62.8551C59.2709 62.8607 59.271 62.8663 59.271 62.8719V68.7424C59.271 69.6484 58.5365 70.3829 57.6304 70.3829H56.1813C56.1107 70.3874 56.0395 70.3897 55.9678 70.3897C55.8961 70.3897 55.8249 70.3874 55.7543 70.3829H54.3053C53.3993 70.3829 52.6648 69.6484 52.6648 68.7424V67.0934C52.6647 67.0912 52.6647 67.0889 52.6647 67.0867V55.5324C52.6647 54.5959 53.424 53.8367 54.3605 53.8367H64.521C67.186 53.8367 69.3463 55.997 69.3463 58.662V68.0077C69.3463 71.1195 69.3463 79.7104 55.9823 79.7104C42.6183 79.7104 42.6183 71.2628 42.6183 68.0077V58.6514H38.1397C37.9935 58.6514 37.9192 58.4758 38.0208 58.3708L49.1245 46.9092Z" fill="url(#paint0_linear_1_3796)"/>
<path fill-rule="evenodd" clip-rule="evenodd" d="M64.8476 53.8654C67.3599 54.0336 69.3457 56.1248 69.3457 58.6797V68.0254C69.3457 70.7534 69.3457 77.692 60.3424 79.3624L60.0836 79.2983C51.9467 78.2448 49.9355 72.6427 49.8213 70.5141C50.5994 72.3171 52.3932 73.579 54.4816 73.579H57.6886C60.4906 73.579 62.7621 71.3075 62.7621 68.5056V60.2664C62.7621 59.3298 62.0028 58.5706 61.0663 58.5706H59.2737C59.3965 56.1262 61.9242 53.899 64.8476 53.8654Z" fill="url(#paint1_linear_1_3796)"/>
<path fill-rule="evenodd" clip-rule="evenodd" d="M59.2721 58.5701C59.3948 56.1257 61.9225 53.8985 64.846 53.8649C64.7378 53.8576 64.6287 53.8539 64.5188 53.8539H54.3582C53.4217 53.8539 52.6624 54.6131 52.6624 55.5496V62.8785C52.6624 62.882 52.6624 62.8856 52.6624 62.8891V68.7596C52.6624 69.6657 53.3969 70.4002 54.303 70.4002H55.752C55.8226 70.4047 55.8938 70.407 55.9655 70.407C56.0372 70.407 56.1084 70.4047 56.179 70.4002H57.628C58.5341 70.4002 59.2686 69.6657 59.2686 68.7596V62.8891C59.2686 62.8849 59.2686 62.8808 59.2686 62.8766V58.5701L59.2721 58.5701Z" fill="url(#paint2_linear_1_3796)"/>
<defs>
<filter id="filter0_d_1_3796" x="-12.1104" y="0.45427" width="136.221" height="136.221" filterUnits="userSpaceOnUse" color-interpolation-filters="sRGB">
<feFlood flood-opacity="0" result="BackgroundImageFix"/>
<feColorMatrix in="SourceAlpha" type="matrix" values="0 0 0 0 0 0 0 0 0 0 0 0 0 0 0 0 0 0 127 0" result="hardAlpha"/>
<feOffset dy="4.56463"/>
<feGaussianBlur stdDeviation="21.5552"/>
<feComposite in2="hardAlpha" operator="out"/>
<feColorMatrix type="matrix" values="0 0 0 0 0.152941 0 0 0 0 0.164706 0 0 0 0 0.329412 0 0 0 0.21 0"/>
<feBlend mode="normal" in2="BackgroundImageFix" result="effect1_dropShadow_1_3796"/>
<feBlend mode="normal" in="SourceGraphic" in2="effect1_dropShadow_1_3796" result="shape"/>
</filter>
<linearGradient id="paint0_linear_1_3796" x1="44.3786" y1="49.0968" x2="66.4115" y2="79.697" gradientUnits="userSpaceOnUse">
<stop stop-color="#00FE9F"/>
<stop offset="1" stop-color="#2931FE"/>
</linearGradient>
<linearGradient id="paint1_linear_1_3796" x1="65.2201" y1="57.0998" x2="51.4267" y2="73.6272" gradientUnits="userSpaceOnUse">
<stop stop-color="#5A0DFF"/>
<stop offset="0.295882" stop-color="#0D11FF"/>
<stop offset="1" stop-color="#0692FF"/>
</linearGradient>
<linearGradient id="paint2_linear_1_3796" x1="52.6624" y1="67.8345" x2="63.0683" y2="58.387" gradientUnits="userSpaceOnUse">
<stop stop-color="#2931FD"/>
<stop offset="0.695207" stop-color="#7F38FE"/>
<stop offset="1" stop-color="#9938FA"/>
</linearGradient>
</defs>
</svg>
